<?xml version="1.0" encoding="UTF-8" standalone="no"?>
<!DOCTYPE svg PUBLIC "-//W3C//DTD SVG 1.1//EN" "http://www.w3.org/Graphics/SVG/1.1/DTD/svg11.dtd">
<!-- 由 Microsoft Visio, SVG Export 生成 bad_graph.svg Page-1 -->
<svg xmlns="http://www.w3.org/2000/svg" xmlns:xlink="http://www.w3.org/1999/xlink" xmlns:ev="http://www.w3.org/2001/xml-events"
		xmlns:v="http://schemas.microsoft.com/visio/2003/SVGExtensions/" width="11.6929in" height="8.26772in"
		viewBox="0 0 841.89 595.276" xml:space="preserve" color-interpolation-filters="sRGB" class="st6">
	<v:documentProperties v:langID="2052" v:metric="true" v:viewMarkup="false">
		<v:userDefs>
			<v:ud v:nameU="msvSubprocessMaster" v:prompt="" v:val="VT4(Rectangle)"/>
			<v:ud v:nameU="msvNoAutoConnect" v:val="VT0(1):26"/>
		</v:userDefs>
	</v:documentProperties>

	<style type="text/css">
	<![CDATA[
		.st1 {fill:url(#grad0-4);stroke:#4f87bb;stroke-width:0.75}
		.st2 {visibility:visible}
		.st3 {fill:#5b9bd5;fill-opacity:0.22;filter:url(#filter_2);stroke:#5b9bd5;stroke-opacity:0.22}
		.st4 {fill:#5b9bd5;stroke:#c7c8c8;stroke-width:0.25}
		.st5 {fill:#feffff;font-family:Calibri;font-size:0.833336em}
		.st6 {fill:none;fill-rule:evenodd;font-size:12px;overflow:visible;stroke-linecap:square;stroke-miterlimit:3}
	]]>
	</style>

	<defs id="Patterns_And_Gradients">
		<linearGradient id="grad0-4" x1="0" y1="0" x2="1" y2="0" gradientTransform="rotate(60 0.5 0.5)">
			<stop offset="0" stop-color="#e9eff7" stop-opacity="1"/>
			<stop offset="0.24" stop-color="#f4f7fb" stop-opacity="1"/>
			<stop offset="0.54" stop-color="#feffff" stop-opacity="1"/>
		</linearGradient>
	</defs>
	<defs id="Filters">
		<filter id="filter_2">
			<feGaussianBlur stdDeviation="2"/>
		</filter>
	</defs>
	<g v:mID="0" v:index="1" v:groupContext="foregroundPage">
		<v:userDefs>
			<v:ud v:nameU="msvThemeOrder" v:val="VT0(0):26"/>
		</v:userDefs>
		<title>页-1</title>
		<v:pageProperties v:drawingScale="0.0393701" v:pageScale="0.0393701" v:drawingUnits="24" v:shadowOffsetX="8.50394"
				v:shadowOffsetY="-8.50394"/>
		<g id="shape1-1" v:mID="1" v:groupContext="shape" transform="translate(120.472,-60.2362)">
			<title>矩形</title>
			<v:userDefs>
				<v:ud v:nameU="visVersion" v:val="VT0(15):26"/>
			</v:userDefs>
			<rect x="0" y="116.929" width="637.795" height="478.346" class="st1"/>
		</g>
		<g id="shape3-5" v:mID="3" v:groupContext="shape" transform="translate(574.137,-301.323) rotate(45)">
			<title>十字形</title>
			<v:userDefs>
				<v:ud v:nameU="ScaleFactor" v:val="VT0(1):26"/>
				<v:ud v:nameU="ControlX1" v:val="VT0(0):26"/>
				<v:ud v:nameU="ControlY1" v:val="VT0(0.66929133858268):24"/>
				<v:ud v:nameU="ControlX2" v:val="VT0(0.66929133858268):24"/>
				<v:ud v:nameU="ControlY2" v:val="VT0(0):26"/>
				<v:ud v:nameU="visVersion" v:val="VT0(15):26"/>
				<v:ud v:nameU="LockBars" v:prompt="" v:val="VT0(1):5"/>
				<v:ud v:nameU="ControlY1" v:prompt="" v:val="VT0(0.33126825048713):24"/>
				<v:ud v:nameU="ControlX2" v:prompt="" v:val="VT0(0.33126825048713):24"/>
			</v:userDefs>
			<g id="shadow3-6" v:groupContext="shadow" v:shadowOffsetX="0.345598" v:shadowOffsetY="-1.97279" v:shadowType="1"
					transform="matrix(1,0,0,1,1.63935,1.1506)" class="st2">
				<path d="M0 571.42 L23.85 571.42 L23.85 595.28 L40.86 595.28 L40.86 571.42 L64.71 571.42 L64.71 554.42 L40.86 554.42
							 L40.86 530.57 L23.85 530.57 L23.85 554.42 L0 554.42 L0 571.42 Z" class="st3"/>
			</g>
			<path d="M0 571.42 L23.85 571.42 L23.85 595.28 L40.86 595.28 L40.86 571.42 L64.71 571.42 L64.71 554.42 L40.86 554.42
						 L40.86 530.57 L23.85 530.57 L23.85 554.42 L0 554.42 L0 571.42 Z" class="st4"/>
		</g>
		<g id="shape6-10" v:mID="6" v:groupContext="shape" transform="translate(265.748,-170.079)">
			<title>矩形.6</title>
			<v:userDefs>
				<v:ud v:nameU="visVersion" v:val="VT0(15):26"/>
			</v:userDefs>
			<rect x="0" y="356.102" width="318.898" height="239.173" class="st1"/>
		</g>
		<g id="shape4-13" v:mID="4" v:groupContext="shape" transform="translate(237.707,-376.202)">
			<title>圆形</title>
			<desc>Rank = 100</desc>
			<v:userDefs>
				<v:ud v:nameU="visVersion" v:val="VT0(15):26"/>
			</v:userDefs>
			<v:textBlock v:margins="rect(4,4,4,4)" v:tabSpace="42.5197"/>
			<v:textRect cx="31.584" cy="563.692" width="55.28" height="47.376"/>
			<g id="shadow4-14" v:groupContext="shadow" v:shadowOffsetX="0.345598" v:shadowOffsetY="-1.97279" v:shadowType="1"
					transform="matrix(1,0,0,1,0.345598,1.97279)" class="st2">
				<path d="M0 563.69 A31.584 31.584 0 1 1 63.17 563.69 A31.584 31.584 0 0 1 0 563.69 Z" class="st3"/>
			</g>
			<path d="M0 563.69 A31.584 31.584 0 1 1 63.17 563.69 A31.584 31.584 0 0 1 0 563.69 Z" class="st4"/>
			<text x="9.22" y="566.69" class="st5" v:langID="2052"><v:paragraph v:horizAlign="1"/><v:tabList/>Rank = 100</text>		</g>
		<g id="shape5-19" v:mID="5" v:groupContext="shape" transform="translate(549.518,-149.43)">
			<title>圆形.5</title>
			<desc>Rank = 0</desc>
			<v:userDefs>
				<v:ud v:nameU="visVersion" v:val="VT0(15):26"/>
			</v:userDefs>
			<v:textBlock v:margins="rect(4,4,4,4)" v:tabSpace="42.5197"/>
			<v:textRect cx="31.584" cy="563.692" width="55.28" height="47.376"/>
			<g id="shadow5-20" v:groupContext="shadow" v:shadowOffsetX="0.345598" v:shadowOffsetY="-1.97279" v:shadowType="1"
					transform="matrix(1,0,0,1,0.345598,1.97279)" class="st2">
				<path d="M0 563.69 A31.584 31.584 0 1 1 63.17 563.69 A31.584 31.584 0 0 1 0 563.69 Z" class="st3"/>
			</g>
			<path d="M0 563.69 A31.584 31.584 0 1 1 63.17 563.69 A31.584 31.584 0 0 1 0 563.69 Z" class="st4"/>
			<text x="14.29" y="566.69" class="st5" v:langID="2052"><v:paragraph v:horizAlign="1"/><v:tabList/>Rank = 0</text>		</g>
		<g id="shape7-25" v:mID="7" v:groupContext="shape" transform="translate(303.307,-283.465)">
			<title>六角星</title>
			<v:userDefs>
				<v:ud v:nameU="CtrlYOffset" v:prompt="" v:val="VT0(0.17716535433071):24"/>
				<v:ud v:nameU="CtrlXOffset" v:prompt="" v:val="VT0(0.10228646501391):24"/>
				<v:ud v:nameU="CtrlAngle" v:prompt="" v:val="VT0(0.5235987755983):26"/>
				<v:ud v:nameU="ElbowDist" v:prompt="" v:val="VT0(0.20457293002782):24"/>
				<v:ud v:nameU="visVersion" v:prompt="" v:val="VT0(15):26"/>
			</v:userDefs>
			<g id="shadow7-26" v:groupContext="shadow" v:shadowOffsetX="0.345598" v:shadowOffsetY="-1.97279" v:shadowType="1"
					transform="matrix(1,0,0,1,0.345598,1.97279)" class="st2">
				<path d="M42.52 510.24 L49.88 540 L79.34 531.5 L57.25 552.76 L79.34 574.02 L49.88 565.51 L42.52 595.28 L35.16 565.51
							 L5.7 574.02 L27.79 552.76 L5.7 531.5 L35.16 540 L42.52 510.24 Z" class="st3"/>
			</g>
			<path d="M42.52 510.24 L49.88 540 L79.34 531.5 L57.25 552.76 L79.34 574.02 L49.88 565.51 L42.52 595.28 L35.16 565.51
						 L5.7 574.02 L27.79 552.76 L5.7 531.5 L35.16 540 L42.52 510.24 Z" class="st4"/>
		</g>
		<g id="shape8-30" v:mID="8" v:groupContext="shape" transform="translate(433.701,-283.465)">
			<title>六角星.8</title>
			<v:userDefs>
				<v:ud v:nameU="CtrlYOffset" v:prompt="" v:val="VT0(0.17716535433071):24"/>
				<v:ud v:nameU="CtrlXOffset" v:prompt="" v:val="VT0(0.10228646501391):24"/>
				<v:ud v:nameU="CtrlAngle" v:prompt="" v:val="VT0(0.5235987755983):26"/>
				<v:ud v:nameU="ElbowDist" v:prompt="" v:val="VT0(0.20457293002782):24"/>
				<v:ud v:nameU="visVersion" v:prompt="" v:val="VT0(15):26"/>
			</v:userDefs>
			<g id="shadow8-31" v:groupContext="shadow" v:shadowOffsetX="0.345598" v:shadowOffsetY="-1.97279" v:shadowType="1"
					transform="matrix(1,0,0,1,0.345598,1.97279)" class="st2">
				<path d="M42.52 510.24 L49.88 540 L79.34 531.5 L57.25 552.76 L79.34 574.02 L49.88 565.51 L42.52 595.28 L35.16 565.51
							 L5.7 574.02 L27.79 552.76 L5.7 531.5 L35.16 540 L42.52 510.24 Z" class="st3"/>
			</g>
			<path d="M42.52 510.24 L49.88 540 L79.34 531.5 L57.25 552.76 L79.34 574.02 L49.88 565.51 L42.52 595.28 L35.16 565.51
						 L5.7 574.02 L27.79 552.76 L5.7 531.5 L35.16 540 L42.52 510.24 Z" class="st4"/>
		</g>
		<g id="shape9-35" v:mID="9" v:groupContext="shape" transform="translate(433.701,-184.252)">
			<title>六角星.9</title>
			<v:userDefs>
				<v:ud v:nameU="CtrlYOffset" v:prompt="" v:val="VT0(0.17716535433071):24"/>
				<v:ud v:nameU="CtrlXOffset" v:prompt="" v:val="VT0(0.10228646501391):24"/>
				<v:ud v:nameU="CtrlAngle" v:prompt="" v:val="VT0(0.5235987755983):26"/>
				<v:ud v:nameU="ElbowDist" v:prompt="" v:val="VT0(0.20457293002782):24"/>
				<v:ud v:nameU="visVersion" v:prompt="" v:val="VT0(15):26"/>
			</v:userDefs>
			<g id="shadow9-36" v:groupContext="shadow" v:shadowOffsetX="0.345598" v:shadowOffsetY="-1.97279" v:shadowType="1"
					transform="matrix(1,0,0,1,0.345598,1.97279)" class="st2">
				<path d="M42.52 510.24 L49.88 540 L79.34 531.5 L57.25 552.76 L79.34 574.02 L49.88 565.51 L42.52 595.28 L35.16 565.51
							 L5.7 574.02 L27.79 552.76 L5.7 531.5 L35.16 540 L42.52 510.24 Z" class="st3"/>
			</g>
			<path d="M42.52 510.24 L49.88 540 L79.34 531.5 L57.25 552.76 L79.34 574.02 L49.88 565.51 L42.52 595.28 L35.16 565.51
						 L5.7 574.02 L27.79 552.76 L5.7 531.5 L35.16 540 L42.52 510.24 Z" class="st4"/>
		</g>
		<g id="shape10-40" v:mID="10" v:groupContext="shape" transform="translate(303.307,-184.252)">
			<title>六角星.10</title>
			<v:userDefs>
				<v:ud v:nameU="CtrlYOffset" v:prompt="" v:val="VT0(0.17716535433071):24"/>
				<v:ud v:nameU="CtrlXOffset" v:prompt="" v:val="VT0(0.10228646501391):24"/>
				<v:ud v:nameU="CtrlAngle" v:prompt="" v:val="VT0(0.5235987755983):26"/>
				<v:ud v:nameU="ElbowDist" v:prompt="" v:val="VT0(0.20457293002782):24"/>
				<v:ud v:nameU="visVersion" v:prompt="" v:val="VT0(15):26"/>
			</v:userDefs>
			<g id="shadow10-41" v:groupContext="shadow" v:shadowOffsetX="0.345598" v:shadowOffsetY="-1.97279" v:shadowType="1"
					transform="matrix(1,0,0,1,0.345598,1.97279)" class="st2">
				<path d="M42.52 510.24 L49.88 540 L79.34 531.5 L57.25 552.76 L79.34 574.02 L49.88 565.51 L42.52 595.28 L35.16 565.51
							 L5.7 574.02 L27.79 552.76 L5.7 531.5 L35.16 540 L42.52 510.24 Z" class="st3"/>
			</g>
			<path d="M42.52 510.24 L49.88 540 L79.34 531.5 L57.25 552.76 L79.34 574.02 L49.88 565.51 L42.52 595.28 L35.16 565.51
						 L5.7 574.02 L27.79 552.76 L5.7 531.5 L35.16 540 L42.52 510.24 Z" class="st4"/>
		</g>
	</g>
</svg>
