<?xml version="1.0" encoding="UTF-8" standalone="no"?>
<!DOCTYPE svg PUBLIC "-//W3C//DTD SVG 1.1//EN" "http://www.w3.org/Graphics/SVG/1.1/DTD/svg11.dtd">
<!-- 由 Microsoft Visio, SVG Export 生成 node.svg Page-1 -->
<svg xmlns="http://www.w3.org/2000/svg" xmlns:xlink="http://www.w3.org/1999/xlink" xmlns:ev="http://www.w3.org/2001/xml-events"
		xmlns:v="http://schemas.microsoft.com/visio/2003/SVGExtensions/" width="11.6929in" height="8.26772in"
		viewBox="0 0 841.89 595.276" xml:space="preserve" color-interpolation-filters="sRGB" class="st8">
	<v:documentProperties v:langID="2052" v:metric="true" v:viewMarkup="false">
		<v:userDefs>
			<v:ud v:nameU="msvSubprocessMaster" v:prompt="" v:val="VT4(Rectangle)"/>
			<v:ud v:nameU="msvNoAutoConnect" v:val="VT0(1):26"/>
		</v:userDefs>
	</v:documentProperties>

	<style type="text/css">
	<![CDATA[
		.st1 {visibility:visible}
		.st2 {fill:#5b9bd5;fill-opacity:0.22;filter:url(#filter_2);stroke:#5b9bd5;stroke-opacity:0.22}
		.st3 {fill:#5b9bd5;stroke:#c7c8c8;stroke-width:0.25}
		.st4 {fill:#5b9bd5;fill-opacity:0.25;filter:url(#filter_2);stroke:#5b9bd5;stroke-opacity:0.25}
		.st5 {fill:#4f87bb;stroke:#40709c;stroke-width:0.75}
		.st6 {fill:none;stroke:none;stroke-width:0.25}
		.st7 {fill:#5b9bd5;font-family:Calibri;font-size:1.99999em}
		.st8 {fill:none;fill-rule:evenodd;font-size:12px;overflow:visible;stroke-linecap:square;stroke-miterlimit:3}
	]]>
	</style>

	<defs id="Filters">
		<filter id="filter_2">
			<feGaussianBlur stdDeviation="2"/>
		</filter>
	</defs>
	<g v:mID="0" v:index="1" v:groupContext="foregroundPage">
		<v:userDefs>
			<v:ud v:nameU="msvThemeOrder" v:val="VT0(0):26"/>
		</v:userDefs>
		<title>页-1</title>
		<v:pageProperties v:drawingScale="0.0393701" v:pageScale="0.0393701" v:drawingUnits="24" v:shadowOffsetX="8.50394"
				v:shadowOffsetY="-8.50394"/>
		<g id="shape1-1" v:mID="1" v:groupContext="shape" transform="translate(383.386,-469.134)">
			<title>圆形</title>
			<v:userDefs>
				<v:ud v:nameU="visVersion" v:val="VT0(15):26"/>
			</v:userDefs>
			<g id="shadow1-2" v:groupContext="shadow" v:shadowOffsetX="0.345598" v:shadowOffsetY="-1.97279" v:shadowType="1"
					transform="matrix(1,0,0,1,0.345598,1.97279)" class="st1">
				<path d="M0 553.46 A41.811 41.811 0 0 1 83.62 553.46 A41.811 41.811 0 1 1 0 553.46 Z" class="st2"/>
			</g>
			<path d="M0 553.46 A41.811 41.811 0 0 1 83.62 553.46 A41.811 41.811 0 1 1 0 553.46 Z" class="st3"/>
		</g>
		<g id="shape2-6" v:mID="2" v:groupContext="shape" transform="translate(-123.645,-222.902) rotate(-38.8114)">
			<title>普通箭头</title>
			<v:userDefs>
				<v:ud v:nameU="visVersion" v:val="VT0(15):26"/>
				<v:ud v:nameU="ArrowType" v:prompt="" v:val="VT0(2):26"/>
			</v:userDefs>
			<g id="shadow2-7" v:groupContext="shadow" v:shadowOffsetX="0.345598" v:shadowOffsetY="-1.97279" v:shadowType="1"
					transform="matrix(1,-5.55112E-017,5.55112E-017,1,-0.96717,1.75383)" class="st1">
				<path d="M0 595.28 L11.34 583.94 L11.34 589.61 L167.34 589.61 L167.34 595.28 L167.34 600.94 L11.34 600.94 L11.34
							 606.61 L0 595.28 Z" class="st4"/>
			</g>
			<path d="M0 595.28 L11.34 583.94 L11.34 589.61 L167.34 589.61 L167.34 595.28 L167.34 600.94 L11.34 600.94 L11.34 606.61
						 L0 595.28 Z" class="st5"/>
		</g>
		<g id="shape4-11" v:mID="4" v:groupContext="shape" transform="translate(323.869,746.715) rotate(-148.173)">
			<title>普通箭头.4</title>
			<v:userDefs>
				<v:ud v:nameU="visVersion" v:val="VT0(15):26"/>
				<v:ud v:nameU="ArrowType" v:prompt="" v:val="VT0(2):26"/>
			</v:userDefs>
			<g id="shadow4-12" v:groupContext="shadow" v:shadowOffsetX="0.345598" v:shadowOffsetY="-1.97279" v:shadowType="1"
					transform="matrix(1,0,0,1,-1.33401,-1.49391)" class="st1">
				<path d="M0 595.28 L11.34 583.94 L11.34 589.61 L193.5 589.61 L193.5 595.28 L193.5 600.94 L11.34 600.94 L11.34 606.61
							 L0 595.28 Z" class="st4"/>
			</g>
			<path d="M0 595.28 L11.34 583.94 L11.34 589.61 L193.5 589.61 L193.5 595.28 L193.5 600.94 L11.34 600.94 L11.34 606.61
						 L0 595.28 Z" class="st5"/>
		</g>
		<g id="shape5-16" v:mID="5" v:groupContext="shape" transform="translate(-164.409,255.118) rotate(-90)">
			<title>普通箭头.5</title>
			<v:userDefs>
				<v:ud v:nameU="visVersion" v:val="VT0(15):26"/>
				<v:ud v:nameU="ArrowType" v:prompt="" v:val="VT0(2):26"/>
			</v:userDefs>
			<g id="shadow5-17" v:groupContext="shadow" v:shadowOffsetX="0.345598" v:shadowOffsetY="-1.97279" v:shadowType="1"
					transform="matrix(1,0,0,1,-1.97279,0.345598)" class="st1">
				<path d="M0 595.28 L11.34 583.94 L11.34 589.61 L104.88 589.61 L104.88 595.28 L104.88 600.94 L11.34 600.94 L11.34
							 606.61 L0 595.28 Z" class="st4"/>
			</g>
			<path d="M0 595.28 L11.34 583.94 L11.34 589.61 L104.88 589.61 L104.88 595.28 L104.88 600.94 L11.34 600.94 L11.34 606.61
						 L0 595.28 Z" class="st5"/>
		</g>
		<g id="shape6-21" v:mID="6" v:groupContext="shape" transform="translate(157.323,-256.535)">
			<title>圆形.6</title>
			<v:userDefs>
				<v:ud v:nameU="visVersion" v:val="VT0(15):26"/>
			</v:userDefs>
			<g id="shadow6-22" v:groupContext="shadow" v:shadowOffsetX="0.345598" v:shadowOffsetY="-1.97279" v:shadowType="1"
					transform="matrix(1,0,0,1,0.345598,1.97279)" class="st1">
				<path d="M0 553.46 A41.811 41.811 0 0 1 83.62 553.46 A41.811 41.811 0 1 1 0 553.46 Z" class="st2"/>
			</g>
			<path d="M0 553.46 A41.811 41.811 0 0 1 83.62 553.46 A41.811 41.811 0 1 1 0 553.46 Z" class="st3"/>
		</g>
		<g id="shape7-26" v:mID="7" v:groupContext="shape" transform="translate(-410.439,136.755) rotate(-57.8477)">
			<title>普通箭头.7</title>
			<v:userDefs>
				<v:ud v:nameU="visVersion" v:val="VT0(15):26"/>
				<v:ud v:nameU="ArrowType" v:prompt="" v:val="VT0(2):26"/>
			</v:userDefs>
			<g id="shadow7-27" v:groupContext="shadow" v:shadowOffsetX="0.345598" v:shadowOffsetY="-1.97279" v:shadowType="1"
					transform="matrix(1,0,0,1,-1.48632,1.34246)" class="st1">
				<path d="M0 595.28 L11.34 583.94 L11.34 589.61 L117.18 589.61 L117.18 595.28 L117.18 600.94 L11.34 600.94 L11.34
							 606.61 L0 595.28 Z" class="st4"/>
			</g>
			<path d="M0 595.28 L11.34 583.94 L11.34 589.61 L117.18 589.61 L117.18 595.28 L117.18 600.94 L11.34 600.94 L11.34 606.61
						 L0 595.28 Z" class="st5"/>
		</g>
		<g id="shape8-31" v:mID="8" v:groupContext="shape" transform="translate(-202.252,773.479) rotate(-121.866)">
			<title>普通箭头.8</title>
			<v:userDefs>
				<v:ud v:nameU="visVersion" v:val="VT0(15):26"/>
				<v:ud v:nameU="ArrowType" v:prompt="" v:val="VT0(2):26"/>
			</v:userDefs>
			<g id="shadow8-32" v:groupContext="shadow" v:shadowOffsetX="0.345598" v:shadowOffsetY="-1.97279" v:shadowType="1"
					transform="matrix(1,0,0,1,-1.85792,-0.747993)" class="st1">
				<path d="M0 595.28 L11.34 583.94 L11.34 589.61 L123.49 589.61 L123.49 595.28 L123.49 600.94 L11.34 600.94 L11.34
							 606.61 L0 595.28 Z" class="st4"/>
			</g>
			<path d="M0 595.28 L11.34 583.94 L11.34 589.61 L123.49 589.61 L123.49 595.28 L123.49 600.94 L11.34 600.94 L11.34 606.61
						 L0 595.28 Z" class="st5"/>
		</g>
		<g id="shape9-36" v:mID="9" v:groupContext="shape" transform="translate(-396.85,467.717) rotate(-90)">
			<title>普通箭头.9</title>
			<v:userDefs>
				<v:ud v:nameU="visVersion" v:val="VT0(15):26"/>
				<v:ud v:nameU="ArrowType" v:prompt="" v:val="VT0(2):26"/>
			</v:userDefs>
			<g id="shadow9-37" v:groupContext="shadow" v:shadowOffsetX="0.345598" v:shadowOffsetY="-1.97279" v:shadowType="1"
					transform="matrix(1,0,0,1,-1.97279,0.345598)" class="st1">
				<path d="M0 595.28 L11.34 583.94 L11.34 589.61 L104.88 589.61 L104.88 595.28 L104.88 600.94 L11.34 600.94 L11.34
							 606.61 L0 595.28 Z" class="st4"/>
			</g>
			<path d="M0 595.28 L11.34 583.94 L11.34 589.61 L104.88 589.61 L104.88 595.28 L104.88 600.94 L11.34 600.94 L11.34 606.61
						 L0 595.28 Z" class="st5"/>
		</g>
		<g id="shape10-41" v:mID="10" v:groupContext="shape" transform="translate(392.598,-242.362)">
			<title>圆形.10</title>
			<v:userDefs>
				<v:ud v:nameU="visVersion" v:val="VT0(15):26"/>
			</v:userDefs>
			<g id="shadow10-42" v:groupContext="shadow" v:shadowOffsetX="0.345598" v:shadowOffsetY="-1.97279" v:shadowType="1"
					transform="matrix(1,0,0,1,0.345598,1.97279)" class="st1">
				<path d="M0 553.46 A41.811 41.811 0 0 1 83.62 553.46 A41.811 41.811 0 1 1 0 553.46 Z" class="st2"/>
			</g>
			<path d="M0 553.46 A41.811 41.811 0 0 1 83.62 553.46 A41.811 41.811 0 1 1 0 553.46 Z" class="st3"/>
		</g>
		<g id="shape11-46" v:mID="11" v:groupContext="shape" transform="translate(-175.163,150.928) rotate(-57.8477)">
			<title>普通箭头.11</title>
			<v:userDefs>
				<v:ud v:nameU="visVersion" v:val="VT0(15):26"/>
				<v:ud v:nameU="ArrowType" v:prompt="" v:val="VT0(2):26"/>
			</v:userDefs>
			<g id="shadow11-47" v:groupContext="shadow" v:shadowOffsetX="0.345598" v:shadowOffsetY="-1.97279" v:shadowType="1"
					transform="matrix(1,5.55112E-017,-5.55112E-017,1,-1.48632,1.34246)" class="st1">
				<path d="M0 595.28 L11.34 583.94 L11.34 589.61 L117.18 589.61 L117.18 595.28 L117.18 600.94 L11.34 600.94 L11.34
							 606.61 L0 595.28 Z" class="st4"/>
			</g>
			<path d="M0 595.28 L11.34 583.94 L11.34 589.61 L117.18 589.61 L117.18 595.28 L117.18 600.94 L11.34 600.94 L11.34 606.61
						 L0 595.28 Z" class="st5"/>
		</g>
		<g id="shape12-51" v:mID="12" v:groupContext="shape" transform="translate(33.0239,787.652) rotate(-121.866)">
			<title>普通箭头.12</title>
			<v:userDefs>
				<v:ud v:nameU="visVersion" v:val="VT0(15):26"/>
				<v:ud v:nameU="ArrowType" v:prompt="" v:val="VT0(2):26"/>
			</v:userDefs>
			<g id="shadow12-52" v:groupContext="shadow" v:shadowOffsetX="0.345598" v:shadowOffsetY="-1.97279" v:shadowType="1"
					transform="matrix(1,0,0,1,-1.85792,-0.747993)" class="st1">
				<path d="M0 595.28 L11.34 583.94 L11.34 589.61 L123.49 589.61 L123.49 595.28 L123.49 600.94 L11.34 600.94 L11.34
							 606.61 L0 595.28 Z" class="st4"/>
			</g>
			<path d="M0 595.28 L11.34 583.94 L11.34 589.61 L123.49 589.61 L123.49 595.28 L123.49 600.94 L11.34 600.94 L11.34 606.61
						 L0 595.28 Z" class="st5"/>
		</g>
		<g id="shape13-56" v:mID="13" v:groupContext="shape" transform="translate(-161.575,481.89) rotate(-90)">
			<title>普通箭头.13</title>
			<v:userDefs>
				<v:ud v:nameU="visVersion" v:val="VT0(15):26"/>
				<v:ud v:nameU="ArrowType" v:prompt="" v:val="VT0(2):26"/>
			</v:userDefs>
			<g id="shadow13-57" v:groupContext="shadow" v:shadowOffsetX="0.345598" v:shadowOffsetY="-1.97279" v:shadowType="1"
					transform="matrix(1,0,0,1,-1.97279,0.345598)" class="st1">
				<path d="M0 595.28 L11.34 583.94 L11.34 589.61 L104.88 589.61 L104.88 595.28 L104.88 600.94 L11.34 600.94 L11.34
							 606.61 L0 595.28 Z" class="st4"/>
			</g>
			<path d="M0 595.28 L11.34 583.94 L11.34 589.61 L104.88 589.61 L104.88 595.28 L104.88 600.94 L11.34 600.94 L11.34 606.61
						 L0 595.28 Z" class="st5"/>
		</g>
		<g id="shape14-61" v:mID="14" v:groupContext="shape" transform="translate(625.039,-242.362)">
			<title>圆形.14</title>
			<v:userDefs>
				<v:ud v:nameU="visVersion" v:val="VT0(15):26"/>
			</v:userDefs>
			<g id="shadow14-62" v:groupContext="shadow" v:shadowOffsetX="0.345598" v:shadowOffsetY="-1.97279" v:shadowType="1"
					transform="matrix(1,0,0,1,0.345598,1.97279)" class="st1">
				<path d="M0 553.46 A41.811 41.811 0 0 1 83.62 553.46 A41.811 41.811 0 1 1 0 553.46 Z" class="st2"/>
			</g>
			<path d="M0 553.46 A41.811 41.811 0 0 1 83.62 553.46 A41.811 41.811 0 1 1 0 553.46 Z" class="st3"/>
		</g>
		<g id="shape15-66" v:mID="15" v:groupContext="shape" transform="translate(57.2778,150.928) rotate(-57.8477)">
			<title>普通箭头.15</title>
			<v:userDefs>
				<v:ud v:nameU="visVersion" v:val="VT0(15):26"/>
				<v:ud v:nameU="ArrowType" v:prompt="" v:val="VT0(2):26"/>
			</v:userDefs>
			<g id="shadow15-67" v:groupContext="shadow" v:shadowOffsetX="0.345598" v:shadowOffsetY="-1.97279" v:shadowType="1"
					transform="matrix(1,5.55112E-017,-5.55112E-017,1,-1.48632,1.34246)" class="st1">
				<path d="M0 595.28 L11.34 583.94 L11.34 589.61 L117.18 589.61 L117.18 595.28 L117.18 600.94 L11.34 600.94 L11.34
							 606.61 L0 595.28 Z" class="st4"/>
			</g>
			<path d="M0 595.28 L11.34 583.94 L11.34 589.61 L117.18 589.61 L117.18 595.28 L117.18 600.94 L11.34 600.94 L11.34 606.61
						 L0 595.28 Z" class="st5"/>
		</g>
		<g id="shape16-71" v:mID="16" v:groupContext="shape" transform="translate(265.465,787.652) rotate(-121.866)">
			<title>普通箭头.16</title>
			<v:userDefs>
				<v:ud v:nameU="visVersion" v:val="VT0(15):26"/>
				<v:ud v:nameU="ArrowType" v:prompt="" v:val="VT0(2):26"/>
			</v:userDefs>
			<g id="shadow16-72" v:groupContext="shadow" v:shadowOffsetX="0.345598" v:shadowOffsetY="-1.97279" v:shadowType="1"
					transform="matrix(1,0,0,1,-1.85792,-0.747993)" class="st1">
				<path d="M0 595.28 L11.34 583.94 L11.34 589.61 L123.49 589.61 L123.49 595.28 L123.49 600.94 L11.34 600.94 L11.34
							 606.61 L0 595.28 Z" class="st4"/>
			</g>
			<path d="M0 595.28 L11.34 583.94 L11.34 589.61 L123.49 589.61 L123.49 595.28 L123.49 600.94 L11.34 600.94 L11.34 606.61
						 L0 595.28 Z" class="st5"/>
		</g>
		<g id="shape17-76" v:mID="17" v:groupContext="shape" transform="translate(70.8661,481.89) rotate(-90)">
			<title>普通箭头.17</title>
			<v:userDefs>
				<v:ud v:nameU="visVersion" v:val="VT0(15):26"/>
				<v:ud v:nameU="ArrowType" v:prompt="" v:val="VT0(2):26"/>
			</v:userDefs>
			<g id="shadow17-77" v:groupContext="shadow" v:shadowOffsetX="0.345598" v:shadowOffsetY="-1.97279" v:shadowType="1"
					transform="matrix(1,0,0,1,-1.97279,0.345598)" class="st1">
				<path d="M0 595.28 L11.34 583.94 L11.34 589.61 L104.88 589.61 L104.88 595.28 L104.88 600.94 L11.34 600.94 L11.34
							 606.61 L0 595.28 Z" class="st4"/>
			</g>
			<path d="M0 595.28 L11.34 583.94 L11.34 589.61 L104.88 589.61 L104.88 595.28 L104.88 600.94 L11.34 600.94 L11.34 606.61
						 L0 595.28 Z" class="st5"/>
		</g>
		<g id="shape18-81" v:mID="18" v:groupContext="shape" transform="translate(262.913,-469.134)">
			<title>工作表.18</title>
			<desc>Node</desc>
			<v:textBlock v:margins="rect(4,4,4,4)" v:tabSpace="42.5197"/>
			<v:textRect cx="49.6063" cy="553.11" width="99.22" height="84.3307"/>
			<rect x="0" y="510.945" width="99.2126" height="84.3307" class="st6"/>
			<text x="23.26" y="560.31" class="st7" v:langID="2052"><v:paragraph v:horizAlign="1"/><v:tabList/>Node</text>		</g>
	</g>
</svg>
